<svg width="380" height="380" viewBox="0 0 380 380" fill="none" xmlns="http://www.w3.org/2000/svg">
<g clip-path="url(#clip0_201_801)">
<mask id="mask0_201_801" style="mask-type:luminance" maskUnits="userSpaceOnUse" x="0" y="0" width="380" height="380">
<path d="M380 0H0V380H380V0Z" fill="white"/>
</mask>
<g mask="url(#mask0_201_801)">
<path d="M249.432 71.6075V-136.184H344.622V98.8459" stroke="#CCDDE2" stroke-width="4.82" stroke-miterlimit="10"/>
<path d="M258.894 3.04034V15.2004H271.054V-7.11328H258.894V3.04034ZM260.893 -5.12208H269.04V3.04034H260.893V-5.12208ZM260.893 5.03532H269.04V13.2054H260.893V5.03532Z" fill="#D7E8F0"/>
<path d="M280.334 3.04034V15.2004H292.494V-7.11328H280.334V3.04034ZM282.34 -5.11448H290.502V3.04034H282.34V-5.11448ZM282.34 5.04292H290.502V13.2054H282.34V5.04292Z" fill="#D7E8F0"/>
<path d="M301.188 3.04034V15.2004H313.348V-7.11328H301.188V3.04034ZM303.187 -5.12208H311.349V3.04034H303.187V-5.12208ZM303.187 5.03532H311.349V13.2054H303.187V5.03532Z" fill="#D7E8F0"/>
<path d="M320.819 3.04034V15.2004H332.979V-7.11328H320.819V3.04034ZM322.814 -5.12208H330.98V3.04034H322.814V-5.12208ZM322.814 5.03532H330.98V13.2054H322.814V5.03532Z" fill="#D7E8F0"/>
<path d="M245.233 258.829C242.022 262.067 238.841 265.669 235.452 268.941C234.52 269.851 233.566 270.73 232.59 271.578C231.507 272.521 230.39 273.417 229.246 274.238C229.163 273.999 229.062 273.767 228.942 273.543C227.023 269.743 221.817 267.337 221.171 263.028C220.582 259.004 224.211 255.307 223.619 251.362C222.95 246.901 217.463 244.252 216.448 239.894C215.802 237.188 216.38 234.068 216.144 231.279C215.875 228.161 215.347 225.069 214.567 222.038C214.947 222.011 215.327 222 215.707 221.988C223.421 221.859 231.013 226.191 233.51 232.279C235.52 237.219 234.498 242.884 237.169 247.501C237.33 247.8 237.512 248.087 237.713 248.36C238.067 248.845 238.447 249.309 238.853 249.751L239.7 250.633C239.841 250.773 239.997 250.902 240.137 251.054C240.278 251.206 240.43 251.339 240.57 251.491C241.9 252.764 243.257 254.045 244.139 255.565C244.218 255.697 244.289 255.834 244.351 255.975C244.432 256.116 244.503 256.263 244.564 256.412C244.644 256.576 244.705 256.732 244.762 256.884C244.819 257.036 244.891 257.264 244.952 257.423C245.035 257.708 245.115 257.978 245.176 258.259C245.176 258.331 245.176 258.392 245.199 258.449C245.222 258.506 245.199 258.495 245.199 258.521C245.204 258.544 245.204 258.567 245.199 258.59C245.199 258.639 245.199 258.673 245.222 258.708V258.73C245.216 258.764 245.22 258.798 245.233 258.829Z" fill="white"/>
<path d="M245.282 259.065H245.295L245.282 259.077V259.065Z" fill="white"/>
<path d="M245.305 259.043C245.4 258.959 245.48 258.902 245.575 258.819C245.495 258.891 245.4 258.971 245.317 259.054C245.317 259.054 245.317 259.054 245.294 259.054L245.305 259.043Z" fill="white"/>
<path d="M272.312 240.335C272.23 241.66 272.23 242.988 272.312 244.313C269.994 244.879 267.71 245.503 265.472 246.255C264.081 246.715 262.717 247.22 261.353 247.798C257.568 249.333 254.004 251.365 250.754 253.84C251.462 252.633 251.961 251.314 252.229 249.941C252.229 249.884 252.252 249.823 252.263 249.755C252.852 246.909 252.898 243.918 254.239 241.197C256.736 236.181 264.035 232.545 271.677 232.309H271.818C272.513 232.309 273.22 232.309 273.927 232.343C273.135 234.95 272.595 237.626 272.312 240.335Z" fill="white"/>
<path d="M268.839 236.671L265.449 246.24C264.058 246.7 262.694 247.205 261.33 247.783C263.507 243.549 266 239.723 268.839 236.671Z" fill="white"/>
<path d="M245.32 259.08C245.32 259.004 245.309 258.928 245.286 258.855C245.309 258.996 245.32 259.08 245.32 259.08Z" fill="white"/>
<path d="M219.545 227.055C227.145 236.908 232.191 253.655 235.452 268.942C234.52 269.851 233.566 270.73 232.59 271.579L219.545 227.055Z" fill="white"/>
<path d="M246.381 243.667C244.861 248.307 244.804 252.993 244.982 255.961C245.028 256.92 245.13 257.875 245.286 258.822L246.381 243.667Z" fill="white"/>
<path d="M245.233 258.829C242.022 262.067 238.841 265.669 235.452 268.941C234.52 269.851 233.566 270.73 232.59 271.578C231.507 272.521 230.39 273.417 229.246 274.238C229.163 273.999 229.062 273.767 228.942 273.543C227.023 269.743 221.817 267.337 221.171 263.028C220.582 259.004 224.211 255.307 223.619 251.362C222.95 246.901 217.463 244.252 216.448 239.894C215.802 237.188 216.38 234.068 216.144 231.279C215.875 228.161 215.347 225.069 214.567 222.038C214.947 222.011 215.327 222 215.707 221.988C223.421 221.859 231.013 226.191 233.51 232.279C235.52 237.219 234.498 242.884 237.169 247.501C237.33 247.8 237.512 248.087 237.713 248.36C238.067 248.845 238.447 249.309 238.853 249.751L239.7 250.633C239.841 250.773 239.997 250.902 240.137 251.054C240.278 251.206 240.43 251.339 240.57 251.491C241.9 252.764 243.257 254.045 244.139 255.565C244.218 255.697 244.289 255.834 244.351 255.975C244.432 256.116 244.503 256.263 244.564 256.412C244.644 256.576 244.705 256.732 244.762 256.884C244.819 257.036 244.891 257.264 244.952 257.423C245.035 257.708 245.115 257.978 245.176 258.259C245.176 258.331 245.176 258.392 245.199 258.449C245.222 258.506 245.199 258.495 245.199 258.521C245.204 258.544 245.204 258.567 245.199 258.59C245.199 258.639 245.199 258.673 245.222 258.708V258.73C245.216 258.764 245.22 258.798 245.233 258.829Z" stroke="#CCDDE2" stroke-width="4.65" stroke-miterlimit="10"/>
<path d="M252.229 249.953C251.96 251.322 251.461 252.636 250.754 253.84" stroke="#CCDDE2" stroke-width="4.65" stroke-miterlimit="10"/>
<path d="M272.3 244.313C272.219 242.988 272.219 241.659 272.3 240.334C272.584 237.629 273.125 234.957 273.915 232.354C273.209 232.308 272.502 232.308 271.806 232.32H271.666C264.024 232.555 256.724 236.192 254.228 241.208C252.886 243.929 252.841 246.908 252.252 249.766" stroke="#CCDDE2" stroke-width="4.65" stroke-miterlimit="10"/>
<path d="M252.233 249.957C252.233 249.896 252.255 249.839 252.267 249.767" stroke="#CCDDE2" stroke-width="4.65" stroke-miterlimit="10"/>
<path d="M252.263 249.75C252.263 249.819 252.24 249.88 252.229 249.937C251.961 251.312 251.463 252.631 250.754 253.839" stroke="#CCDDE2" stroke-width="4.65" stroke-miterlimit="10"/>
<path d="M252.233 249.957C252.233 249.896 252.255 249.839 252.267 249.767" stroke="#CCDDE2" stroke-width="4.65" stroke-miterlimit="10"/>
<path d="M245.282 259.009V259.066" stroke="#CCDDE2" stroke-width="4.65" stroke-miterlimit="10"/>
<path d="M268.839 236.671C266 239.711 263.519 243.549 261.33 247.798" stroke="#CCDDE2" stroke-width="4.65" stroke-miterlimit="10"/>
<path d="M245.32 259.08C245.32 259.004 245.309 258.928 245.286 258.855C245.309 258.996 245.32 259.08 245.32 259.08Z" stroke="#CCDDE2" stroke-width="4.65" stroke-miterlimit="10"/>
<path d="M219.545 227.055C227.145 236.908 232.191 253.655 235.452 268.942" stroke="#CCDDE2" stroke-width="4.65" stroke-miterlimit="10"/>
<path d="M246.381 243.667C244.861 248.307 244.804 252.993 244.982 255.961C245.028 256.92 245.13 257.875 245.286 258.822" stroke="#CCDDE2" stroke-width="4.65" stroke-miterlimit="10"/>
<path d="M327.21 134.284C332.048 152.403 337.037 171.923 336.627 190.547C336.19 210.174 326.196 226.647 308.29 235.007C296.636 240.445 284.107 241.444 272.3 244.306C269.982 244.872 267.699 245.495 265.46 246.247C264.07 246.707 262.705 247.213 261.341 247.79C257.56 249.329 254 251.363 250.754 253.84" stroke="#CCDDE2" stroke-width="4.65" stroke-miterlimit="10"/>
<path d="M133.863 31.1596C133.863 31.1596 111.306 26.0106 92.53 32.3566C90.1911 33.1272 87.9248 34.1038 85.7584 35.275C75.1184 41.0321 67.089 51.8507 67.678 71.5005C67.9934 81.7605 67.393 91.8799 65.3714 101.699C64.7102 104.886 63.8932 108.04 62.9204 111.161C60.5374 118.792 57.098 126.052 52.7022 132.73C38.703 153.957 40.8234 176.02 56.3502 196.479C57.1634 197.55 57.9994 198.611 58.8582 199.648" stroke="#CCDDE2" stroke-width="4.65" stroke-miterlimit="10"/>
<path d="M298.22 21.7593H159.383C143.371 21.7593 130.389 34.7403 130.389 50.7534V181.603C130.389 197.615 143.371 210.597 159.383 210.597H298.22C314.233 210.597 327.214 197.615 327.214 181.603V50.7534C327.214 34.7403 314.233 21.7593 298.22 21.7593Z" fill="#A5CB54"/>
<path d="M296.294 19H158.437C141.36 19 127.517 32.8436 127.517 49.9206V179.675C127.517 196.752 141.36 210.596 158.437 210.596H296.294C313.37 210.596 327.214 196.752 327.214 179.675V49.9206C327.214 32.8436 313.37 19 296.294 19Z" stroke="black" stroke-width="4.65" stroke-miterlimit="10"/>
<path d="M294.348 25.4717H163.256C147.243 25.4717 134.262 38.4528 134.262 54.4656V177.886C134.262 193.899 147.243 206.88 163.256 206.88H294.348C310.361 206.88 323.342 193.899 323.342 177.886V54.4656C323.342 38.4528 310.361 25.4717 294.348 25.4717Z" fill="#A5CB54"/>
<path d="M301.002 34.9941H261.41C256.029 34.9941 251.663 39.691 251.663 45.4708V137.112C251.663 142.903 256.029 147.611 261.41 147.611H301.002C306.394 147.611 310.775 142.903 310.775 137.112V45.4708C310.775 39.691 306.394 34.9941 301.002 34.9941ZM307.971 137.511C307.964 139.437 307.195 141.283 305.833 142.644C304.47 144.006 302.624 144.774 300.698 144.78H261.74C259.811 144.774 257.962 144.006 256.597 142.643C255.232 141.279 254.461 139.432 254.452 137.503V45.0946C254.461 43.1654 255.232 41.3178 256.597 39.9547C257.962 38.5917 259.811 37.8235 261.74 37.8175H300.698C302.626 37.8236 304.473 38.5924 305.835 39.9559C307.198 41.3193 307.966 43.1669 307.971 45.0946V137.511Z" fill="#D7E8F0"/>
<path d="M300.481 158.365H260.889C255.512 158.365 251.142 163.062 251.142 168.841V182.78C251.142 188.575 255.512 193.283 260.889 193.283H300.481C305.873 193.283 310.255 188.575 310.255 182.78V168.841C310.255 163.062 305.873 158.365 300.481 158.365ZM307.45 183.183C307.445 185.11 306.677 186.957 305.314 188.32C303.952 189.683 302.105 190.451 300.177 190.456H261.22C259.291 190.451 257.442 189.683 256.077 188.321C254.711 186.958 253.94 185.111 253.931 183.183V168.465C253.94 166.536 254.711 164.689 256.077 163.326C257.442 161.962 259.29 161.194 261.22 161.188H300.177C302.105 161.194 303.952 161.963 305.315 163.326C306.677 164.69 307.445 166.537 307.45 168.465V183.183Z" fill="#D7E8F0"/>
<path d="M211.755 168.497L153.737 167.645C153.112 167.635 152.518 167.378 152.083 166.93C151.648 166.482 151.409 165.879 151.419 165.255C151.418 165.039 151.449 164.824 151.51 164.617C151.66 164.125 151.965 163.696 152.379 163.394C152.794 163.091 153.295 162.93 153.809 162.937L211.827 163.781C211.393 164.455 211.15 165.233 211.124 166.034C211.093 166.899 211.312 167.754 211.755 168.497Z" fill="#A5CB54"/>
<path d="M225.823 166.976C225.676 167.466 225.374 167.896 224.963 168.201C224.553 168.506 224.054 168.671 223.543 168.67L219.363 168.61C219.811 167.909 220.055 167.098 220.068 166.266C220.08 165.434 219.862 164.615 219.435 163.901L223.615 163.962C224.238 163.975 224.831 164.233 225.265 164.681C225.699 165.128 225.939 165.729 225.933 166.352C225.926 166.564 225.888 166.774 225.823 166.976Z" fill="#D7E8F0"/>
<path d="M225.686 176.32C225.539 176.809 225.237 177.238 224.826 177.541C224.415 177.844 223.917 178.007 223.406 178.003L165.741 177.159C166.279 176.517 166.625 175.735 166.737 174.905C166.849 174.074 166.724 173.229 166.375 172.466L223.459 173.28C224.083 173.292 224.676 173.55 225.11 173.997C225.544 174.445 225.784 175.046 225.777 175.67C225.779 175.89 225.748 176.109 225.686 176.32Z" fill="#D7E8F0"/>
<path d="M158.802 177.053L153.604 176.977C152.981 176.968 152.387 176.713 151.952 176.267C151.517 175.821 151.276 175.221 151.282 174.598C151.284 174.379 151.316 174.16 151.377 173.949C151.523 173.46 151.824 173.031 152.236 172.73C152.648 172.428 153.146 172.269 153.657 172.277L158.289 172.349C158.018 172.911 157.865 173.523 157.841 174.146C157.802 175.199 158.143 176.231 158.802 177.053Z" fill="#A5CB54"/>
<path d="M207.651 187.219L153.816 186.436C153.194 186.422 152.601 186.163 152.167 185.716C151.734 185.269 151.493 184.669 151.498 184.046C151.5 183.834 151.533 183.624 151.597 183.422C151.743 182.932 152.044 182.501 152.455 182.196C152.866 181.891 153.365 181.726 153.877 181.728L207.632 182.518C207.193 183.224 206.961 184.038 206.961 184.868C206.961 185.699 207.193 186.513 207.632 187.219H207.651Z" fill="#A5CB54"/>
<path d="M225.91 185.77C225.764 186.26 225.462 186.688 225.051 186.991C224.64 187.294 224.141 187.455 223.63 187.45L215.171 187.339L207.651 187.237C207.212 186.531 206.98 185.717 206.98 184.886C206.98 184.056 207.212 183.242 207.651 182.536L215.312 182.65L223.672 182.772C224.294 182.782 224.887 183.038 225.321 183.483C225.756 183.929 225.996 184.528 225.99 185.151C225.992 185.36 225.966 185.569 225.91 185.77Z" fill="#D7E8F0"/>
<path d="M219.34 168.61C218.755 169.523 217.86 170.194 216.819 170.496C215.778 170.799 214.662 170.713 213.68 170.256C212.697 169.798 211.913 168.999 211.475 168.008C211.037 167.016 210.973 165.899 211.296 164.865C211.619 163.829 212.306 162.947 213.231 162.38C214.155 161.814 215.254 161.603 216.322 161.785C217.391 161.967 218.357 162.531 219.041 163.372C219.725 164.213 220.081 165.273 220.043 166.357C220.015 167.157 219.772 167.936 219.34 168.61Z" fill="white"/>
<g opacity="0.72">
<path opacity="0.72" d="M217.656 165.874C217.556 166.408 217.304 166.903 216.931 167.299C216.749 167.5 216.551 167.686 216.338 167.853C216.22 167.937 215.608 168.427 215.49 168.366C214.685 167.96 213.67 166.938 213.545 165.938C213.524 165.782 213.524 165.623 213.545 165.467C213.589 165.198 213.729 164.954 213.938 164.779C214.147 164.604 214.412 164.509 214.685 164.513C214.863 164.52 215.038 164.568 215.194 164.655C215.351 164.741 215.485 164.863 215.585 165.011C215.699 164.874 215.843 164.764 216.006 164.689C216.168 164.615 216.345 164.578 216.524 164.582C216.685 164.587 216.843 164.625 216.988 164.695C217.134 164.763 217.264 164.861 217.37 164.983C217.476 165.103 217.556 165.245 217.605 165.398C217.655 165.552 217.672 165.713 217.656 165.874Z" fill="#A5CB54"/>
</g>
<path d="M165.733 177.16C165.308 177.67 164.773 178.079 164.169 178.356C163.565 178.633 162.907 178.771 162.242 178.761C161.578 178.751 160.924 178.592 160.329 178.297C159.733 178.001 159.212 177.577 158.802 177.054C158.146 176.23 157.808 175.199 157.848 174.147C157.873 173.523 158.026 172.911 158.297 172.349C158.678 171.574 159.276 170.926 160.018 170.483C160.759 170.04 161.613 169.821 162.477 169.853C163.308 169.879 164.116 170.139 164.806 170.604C165.496 171.068 166.041 171.718 166.379 172.478C166.728 173.241 166.853 174.086 166.741 174.917C166.628 175.747 166.283 176.529 165.745 177.171L165.733 177.16Z" fill="white"/>
<g opacity="0.72">
<path opacity="0.72" d="M164.384 173.98C164.281 174.514 164.028 175.006 163.655 175.401C163.476 175.605 163.277 175.791 163.062 175.956C162.948 176.04 162.332 176.534 162.218 176.469C161.413 176.066 160.398 175.044 160.269 174.041C160.248 173.884 160.248 173.726 160.269 173.57C160.308 173.347 160.412 173.141 160.569 172.978C160.725 172.815 160.927 172.702 161.147 172.653C161.368 172.605 161.598 172.623 161.808 172.706C162.019 172.788 162.2 172.932 162.328 173.117C162.479 172.908 162.697 172.756 162.945 172.686C163.194 172.616 163.458 172.633 163.696 172.732C163.934 172.833 164.131 173.011 164.255 173.237C164.378 173.464 164.421 173.726 164.377 173.98H164.384Z" fill="#A5CB54"/>
</g>
<path d="M215.171 187.34C214.635 188.15 213.848 188.763 212.932 189.086C212.015 189.41 211.018 189.426 210.092 189.131C209.166 188.837 208.36 188.248 207.799 187.455C207.237 186.662 206.949 185.708 206.978 184.737C207.007 183.958 207.236 183.2 207.643 182.536C207.956 182.036 208.365 181.603 208.846 181.262C209.327 180.921 209.871 180.679 210.446 180.549C211.021 180.419 211.617 180.404 212.197 180.506C212.778 180.607 213.334 180.823 213.831 181.14C214.328 181.457 214.757 181.87 215.094 182.354C215.431 182.838 215.668 183.384 215.793 183.96C215.918 184.537 215.927 185.132 215.82 185.712C215.713 186.292 215.493 186.845 215.171 187.34Z" fill="white"/>
<g opacity="0.72">
<path opacity="0.72" d="M213.518 184.551C213.416 185.086 213.163 185.58 212.789 185.976C212.61 186.18 212.411 186.366 212.196 186.531C212.082 186.614 211.466 187.104 211.352 187.044C210.547 186.637 209.532 185.619 209.403 184.615C209.382 184.459 209.382 184.3 209.403 184.144C209.442 183.922 209.546 183.716 209.703 183.553C209.859 183.39 210.061 183.277 210.281 183.228C210.502 183.18 210.732 183.198 210.942 183.28C211.153 183.363 211.334 183.506 211.462 183.692C211.613 183.483 211.83 183.331 212.078 183.262C212.326 183.192 212.59 183.208 212.828 183.308C213.065 183.407 213.262 183.584 213.386 183.81C213.51 184.036 213.554 184.297 213.511 184.551H213.518Z" fill="#A5CB54"/>
</g>
<path d="M150.974 46.1162L151.073 59.8684C151.098 62.2669 152.05 64.5633 153.729 66.2763C155.408 67.9894 157.685 68.9872 160.083 69.0606L173.694 69.2962C174.865 69.314 176.027 69.0967 177.112 68.657C178.197 68.217 179.182 67.5638 180.01 66.7357C180.837 65.9081 181.49 64.9224 181.93 63.8371C182.369 62.7522 182.586 61.5898 182.567 60.4194L182.465 46.6672C182.441 44.2686 181.49 41.9727 179.811 40.2596C178.133 38.547 175.856 37.5503 173.459 37.4787L159.847 37.2393C158.677 37.2213 157.514 37.4387 156.429 37.8785C155.344 38.3182 154.359 38.9714 153.531 39.7994C152.704 40.6275 152.051 41.6132 151.612 42.6981C151.172 43.7834 150.955 44.9458 150.974 46.1162Z" fill="white"/>
<path d="M153.068 49.5675L153.14 59.5235C153.162 61.6063 153.989 63.5998 155.448 65.0867C156.906 66.5741 158.883 67.4401 160.964 67.5035L172.786 67.7087C173.803 67.7243 174.812 67.5355 175.754 67.1536C176.697 66.772 177.553 66.2051 178.272 65.4865C178.991 64.7679 179.559 63.9122 179.942 62.9701C180.324 62.0281 180.514 61.0192 180.5 60.0023V59.3297C178.839 55.9325 175.606 50.8481 172.14 53.8881C167.166 58.2581 164.89 54.9331 161.99 50.6429C159.57 47.0519 155.887 44.4299 153.068 49.5675Z" fill="#A5CB54"/>
<path d="M175.309 48.1923C176.811 47.1948 177.198 45.1359 176.173 43.5943C175.149 42.0526 173.101 41.6114 171.6 42.6089C170.098 43.6068 169.711 45.6653 170.736 47.2069C171.76 48.7486 173.808 49.1898 175.309 48.1923Z" fill="#A5CB54"/>
<path d="M230.044 51.6801C227.917 51.6793 225.842 52.3371 224.103 53.5633C222.365 54.7892 221.049 56.5235 220.335 58.5277C219.622 60.5318 219.547 62.7077 220.12 64.7562C220.693 66.8048 221.885 68.6262 223.535 69.9695L196.555 124.959C196.389 124.933 196.221 124.917 196.053 124.91C195.623 124.916 195.196 124.982 194.784 125.107L177.232 103.299C178.016 102.218 178.459 100.927 178.507 99.5928C178.554 98.2578 178.203 96.9392 177.497 95.8053C176.792 94.671 175.765 93.7727 174.547 93.2247C173.329 92.6764 171.975 92.5038 170.659 92.7281C169.342 92.9526 168.123 93.564 167.155 94.4848C166.187 95.4055 165.516 96.5934 165.226 97.8972C164.937 99.201 165.042 100.562 165.529 101.805C166.016 103.049 166.862 104.119 167.96 104.88L155.659 139.886C154.587 139.95 153.57 140.383 152.781 141.112C151.992 141.842 151.479 142.822 151.331 143.886C151.182 144.95 151.406 146.033 151.966 146.95C152.525 147.867 153.385 148.563 154.399 148.918C155.413 149.273 156.518 149.267 157.528 148.899C158.538 148.532 159.389 147.826 159.937 146.902C160.485 145.978 160.697 144.893 160.536 143.831C160.374 142.768 159.85 141.795 159.053 141.075L171.353 106.066C171.505 106.066 171.654 106.088 171.806 106.088C172.72 106.088 173.625 105.902 174.466 105.541L192.014 127.342C191.644 128.013 191.448 128.765 191.444 129.531C191.426 130.152 191.533 130.769 191.758 131.348C191.984 131.927 192.323 132.454 192.755 132.9C193.188 133.345 193.706 133.699 194.278 133.941C194.85 134.183 195.465 134.307 196.086 134.307C196.707 134.307 197.321 134.183 197.893 133.941C198.465 133.699 198.983 133.345 199.416 132.9C199.848 132.454 200.188 131.927 200.413 131.348C200.638 130.769 200.745 130.152 200.727 129.531C200.724 128.498 200.374 127.497 199.732 126.688L226.712 71.6985C228.13 72.1978 229.64 72.3806 231.137 72.2343C232.633 72.088 234.079 71.6156 235.374 70.8511C236.668 70.0861 237.779 69.0472 238.63 67.8073C239.48 66.5673 240.048 65.1564 240.295 63.6732C240.542 62.1901 240.461 60.6709 240.059 59.2223C239.656 57.7737 238.941 56.4308 237.964 55.2882C236.987 54.1451 235.772 53.2301 234.404 52.6065C233.036 51.9833 231.548 51.6671 230.044 51.6801Z" fill="#D7E8F0"/>
<path d="M262.648 71.4961H298.748" stroke="white" stroke-width="4.65" stroke-miterlimit="10"/>
<path d="M262.648 77.0713H298.748" stroke="white" stroke-width="4.65" stroke-miterlimit="10"/>
<path d="M262.648 82.6426H298.748" stroke="white" stroke-width="4.65" stroke-miterlimit="10"/>
<path d="M262.648 88.2134H298.748" stroke="white" stroke-width="4.65" stroke-miterlimit="10"/>
<path d="M262.648 93.7871H298.748" stroke="white" stroke-width="4.65" stroke-miterlimit="10"/>
<path d="M262.648 126.331H298.748" stroke="white" stroke-width="4.65" stroke-miterlimit="10"/>
<path d="M262.648 131.249H298.748" stroke="white" stroke-width="4.65" stroke-miterlimit="10"/>
<path d="M291.164 168.902C291.526 169.203 291.817 169.582 292.014 170.01C292.212 170.438 292.31 170.905 292.304 171.376L292.22 182.521C292.217 182.942 292.131 183.358 291.967 183.745C291.803 184.133 291.564 184.484 291.264 184.778C290.964 185.073 290.608 185.306 290.218 185.463C289.828 185.62 289.411 185.699 288.99 185.694L272.27 185.55C271.422 185.542 270.612 185.198 270.018 184.593C269.423 183.988 269.094 183.172 269.101 182.324L269.2 171.171C269.231 170.33 269.583 169.534 270.183 168.945C270.783 168.356 271.585 168.019 272.426 168.001L289.146 168.146C289.886 168.152 290.601 168.42 291.164 168.902Z" fill="white"/>
<path d="M288.8 170.94L281.002 177.639C280.903 177.724 280.776 177.771 280.645 177.771C280.514 177.771 280.388 177.724 280.288 177.639L272.35 170.799C272.262 170.725 272.2 170.626 272.172 170.515C272.143 170.404 272.151 170.287 272.193 170.18C272.235 170.074 272.31 169.983 272.406 169.921C272.502 169.859 272.615 169.828 272.73 169.834L288.466 169.975C288.576 169.978 288.683 170.016 288.772 170.081C288.861 170.147 288.928 170.238 288.964 170.342C289.001 170.447 289.004 170.56 288.975 170.667C288.946 170.773 288.885 170.869 288.8 170.94Z" fill="#A5CB54"/>
<path d="M281.223 102.744C279.557 102.743 277.928 103.235 276.542 104.16C275.156 105.084 274.076 106.399 273.437 107.937C272.799 109.476 272.631 111.169 272.955 112.803C273.279 114.437 274.081 115.938 275.258 117.116C276.436 118.295 277.936 119.098 279.569 119.423C281.203 119.749 282.897 119.583 284.436 118.945C285.975 118.308 287.291 117.229 288.216 115.844C289.142 114.459 289.636 112.831 289.636 111.165C289.636 110.06 289.419 108.965 288.997 107.944C288.574 106.922 287.954 105.994 287.173 105.212C286.392 104.43 285.464 103.81 284.444 103.386C283.423 102.963 282.328 102.745 281.223 102.744ZM281.223 117.564C280.896 117.564 280.583 117.435 280.352 117.204C280.121 116.972 279.992 116.659 279.992 116.333C279.992 116.007 280.121 115.693 280.352 115.462C280.583 115.231 280.896 115.102 281.223 115.102C281.549 115.102 281.862 115.231 282.093 115.462C282.324 115.693 282.454 116.007 282.454 116.333C282.454 116.659 282.324 116.972 282.093 117.204C281.862 117.435 281.549 117.564 281.223 117.564ZM282.769 108.095C282.511 109.922 282.291 111.841 281.747 113.612C281.697 113.708 281.621 113.789 281.528 113.845C281.434 113.902 281.328 113.931 281.219 113.931C281.11 113.931 281.003 113.902 280.91 113.845C280.817 113.789 280.741 113.708 280.691 113.612C280.305 112.278 280.011 110.92 279.809 109.546C279.638 108.551 279.049 106.928 279.615 105.963C280.106 105.093 281.493 104.99 282.275 105.442C283.275 105.978 282.887 107.16 282.769 108.079V108.095Z" fill="white"/>
<path d="M230.193 69.7412C234.369 69.7412 237.755 66.3558 237.755 62.1792C237.755 58.003 234.369 54.6172 230.193 54.6172C226.016 54.6172 222.631 58.003 222.631 62.1792C222.631 66.3558 226.016 69.7412 230.193 69.7412Z" fill="white"/>
<path d="M281.162 51.3455C282.558 51.3455 283.689 50.2142 283.689 48.8185C283.689 47.4231 282.558 46.2915 281.162 46.2915C279.766 46.2915 278.635 47.4231 278.635 48.8185C278.635 50.2142 279.766 51.3455 281.162 51.3455Z" fill="white"/>
<path d="M274.105 60.2446C274.105 58.3731 274.849 56.578 276.172 55.2548C277.496 53.9313 279.291 53.188 281.162 53.188C283.034 53.188 284.828 53.9313 286.152 55.2548C287.475 56.578 288.219 58.3731 288.219 60.2446H274.105Z" fill="white"/>
<path d="M232.56 301.792C232.558 302.366 232.382 302.926 232.054 303.397C231.726 303.869 231.262 304.228 230.725 304.429L204.258 314.309C204.258 314.309 202.996 311.969 200.796 308.058L185.679 282.769C181.594 303.783 177.038 324.824 174.215 337.938L171.494 350.995L182.4 354.582C183.055 354.74 183.639 355.113 184.057 355.643C184.476 356.172 184.704 356.826 184.707 357.5C184.705 357.958 184.601 358.409 184.4 358.82C184.199 359.231 183.907 359.591 183.546 359.872C183.185 360.153 182.766 360.349 182.318 360.445C181.871 360.54 181.407 360.533 180.964 360.422L155.686 354.016V347.837L155.086 347.719L155.606 275.644L130.906 269.804C127.809 270.769 124.537 271.654 121.193 272.373C121.157 272.378 121.122 272.385 121.087 272.395C112.971 274.523 104.493 274.889 96.2236 273.467C96.1514 273.467 96.0678 273.433 95.9994 273.418C95.399 273.304 94.7986 273.171 94.2096 273.038C94.031 273.003 93.8562 272.969 93.6776 272.92C93.1608 272.802 92.644 272.65 92.1272 272.509C91.8422 272.426 91.561 272.357 91.2912 272.274C91.0214 272.19 90.82 272.122 90.5844 272.038C86.1338 270.641 82.0234 268.331 78.5156 265.255C75.826 262.997 73.5456 260.292 71.7744 257.26C71.0144 256.059 70.3038 254.798 69.6426 253.502C65.6298 245.579 64.7938 242.885 65.9604 242.812C63.3912 241.907 60.9026 240.789 58.52 239.468C58.52 239.468 53.2684 208.821 64.7216 177.977C64.5023 176.069 64.5419 174.14 64.8394 172.243C67.2524 154.937 80.5334 137.15 96.3794 129.945C104.869 126.084 118.712 120.16 114.239 108.365C112.826 104.633 110.819 101.418 110.439 97.546C110.405 97.166 110.36 96.8278 110.333 96.4516C109.698 87.3316 115.007 78.6714 123.603 75.5516C126.415 74.4925 129.421 74.0464 132.42 74.2432C135.419 74.4397 138.341 75.2746 140.991 76.6916C141.907 77.1746 142.728 77.8183 143.416 78.5916C146.03 78.66 149.313 79.1198 150.856 79.838C153.471 81.0616 155.564 83.2048 157.13 85.6178C160.018 90.1155 161.177 95.5077 160.394 100.795C159.944 103.721 158.902 106.524 157.331 109.033C156.557 110.29 155.658 111.467 154.649 112.545C153.763 113.472 152.505 114.825 151.293 115.322C151.307 115.333 151.324 115.339 151.341 115.339C151.358 115.339 151.375 115.333 151.388 115.322L151.035 120.973C158.293 119.32 177.684 112.51 191.9 84.3942C192.926 82.2168 193.982 80.0508 195.092 77.9076C198.375 71.5274 201.894 65.1814 206.557 59.6942C207.697 58.3642 209.384 57.1634 211.196 57.741C212.785 58.2464 213.856 60.021 212.751 61.5106L205.12 71.9378L207.556 71.6224C207.822 71.6866 208.07 71.8078 208.284 71.9777C208.497 72.1479 208.672 72.3623 208.794 72.6066C208.916 72.8509 208.984 73.1188 208.992 73.3917C209 73.6649 208.948 73.9362 208.84 74.1874L207.298 77.8506L208.027 76.9918C208.529 76.399 209.241 76.0232 210.013 75.943C210.786 75.8628 211.559 76.0844 212.172 76.5613C212.785 77.0385 213.19 77.7339 213.302 78.5027C213.414 79.271 213.225 80.0531 212.773 80.6854L208.753 85.88C208.215 86.5659 207.531 87.1241 206.75 87.514L198.793 91.352C201.147 94.2449 203.335 97.2682 205.348 100.407C200.979 108.782 195.857 116.741 190.046 124.188C180.249 136.808 166.144 150.913 148.922 156.811C148.542 167.242 146.699 177.578 143.838 187.69C152.771 187.69 161.295 187.69 169.913 187.69L176.411 169.959C176.71 169.141 177.253 168.434 177.967 167.935C178.68 167.436 179.53 167.169 180.401 167.17H206.374C206.826 167.171 207.274 167.259 207.693 167.428C208.329 167.691 208.874 168.137 209.257 168.709C209.641 169.281 209.846 169.954 209.847 170.643C209.843 171.065 209.763 171.483 209.612 171.878L207.89 176.354H207.833H200.511L197.532 184.889L198.379 182.734H202.042C202.616 182.734 203.181 182.876 203.686 183.147C204.192 183.418 204.623 183.809 204.941 184.287C205.259 184.765 205.453 185.313 205.508 185.885C205.563 186.456 205.475 187.031 205.253 187.56L202.133 195.024C201.193 197.271 199.701 199.245 197.796 200.764C195.892 202.283 193.635 203.297 191.235 203.714L190.904 203.771L190.293 205.58L190.608 204.957C190.505 205.204 190.388 205.474 190.281 205.77H198.497C198.497 205.77 196.673 211.09 193.317 211.409C193.046 211.43 192.774 211.421 192.504 211.383H175.48C176.434 212.443 177.506 213.727 178.649 215.236C183.589 215.164 190.775 215.692 192.554 219.142C192.859 219.485 193.139 219.851 193.39 220.237C194.07 221.377 194.294 224.037 194.131 227.878C194.178 231.84 193.846 235.798 193.139 239.696C194 241.313 194.829 242.938 195.624 244.572C197.354 247.804 198.914 251.125 200.298 254.52C200.345 254.61 200.385 254.704 200.416 254.801C204.564 264.314 208.203 274.04 211.318 283.94L211.493 284.552C213.849 291.498 215.768 297.81 216.497 301.652L228.847 299.121C229.271 298.98 229.722 298.942 230.163 299.009C230.605 299.077 231.023 299.248 231.386 299.509C231.748 299.769 232.043 300.112 232.247 300.509C232.452 300.906 232.559 301.346 232.56 301.792Z" fill="white"/>
<path d="M189.943 206.226H198.159C197.822 207.152 197.393 208.044 196.878 208.886C195.863 210.474 194.298 212.135 192.227 211.853H167.303C166.334 211.86 165.39 211.545 164.62 210.957C164.449 210.167 164.498 209.345 164.76 208.582C174.827 207.039 185.14 205.378 189.753 204.424L190.623 204.272L189.943 206.226Z" fill="#A5CB54"/>
<path d="M209.509 171.144C209.505 171.566 209.425 171.985 209.274 172.379L207.556 176.852H200.23L197.22 185.44L196.126 188.183H172.246L177.779 173.112C178.079 172.295 178.624 171.589 179.338 171.09C180.052 170.591 180.902 170.324 181.773 170.323H207.742C208.194 170.324 208.642 170.412 209.061 170.582C209.206 170.641 209.348 170.708 209.486 170.783C209.498 170.897 209.509 171.026 209.509 171.144Z" fill="#A5CB54"/>
<path d="M209.513 171.14C209.508 171.562 209.428 171.981 209.277 172.375L207.556 176.848H200.233L202.779 169.939C203.061 169.173 203.602 168.531 204.31 168.124C205.018 167.718 205.846 167.574 206.65 167.717C207.453 167.86 208.18 168.282 208.704 168.908C209.227 169.533 209.514 170.324 209.513 171.14Z" fill="#A5CB54"/>
<path d="M198.155 206.226C198.155 206.226 195.799 213.15 191.52 211.66C188.86 210.744 189.259 208.096 189.954 206.211L198.155 206.226Z" fill="#A5CB54"/>
<path d="M192.136 176.849H180.192" stroke="white" stroke-width="4.65" stroke-linecap="round" stroke-linejoin="round"/>
<path d="M190.665 181.347H178.722" stroke="white" stroke-width="4.65" stroke-linecap="round" stroke-linejoin="round"/>
<path d="M200.021 254.979C197.952 249.978 195.54 245.127 192.801 240.46C193.91 234.581 194.666 224.283 192.261 219.609C190.483 216.155 183.304 215.63 178.349 215.703C174.523 210.645 171.429 208.038 171.429 208.038C171.429 208.038 148.394 211.77 143.135 211.8C137.875 211.83 137.879 214.745 137.879 214.745C137.879 214.745 134.216 225.799 130.074 231.29C125.932 236.781 114.79 243.45 98.7354 246.019C82.6804 248.588 70.053 245.422 67.1574 243.811C64.2618 242.2 64.1668 243.754 69.35 253.965C74.5332 264.175 82.5132 271.517 95.9158 273.938C104.182 275.361 112.658 274.996 120.772 272.866C120.772 272.866 141.979 267.519 148.2 263.442C154.421 259.365 155.393 264.909 155.393 264.909L154.785 348.197L171.201 351.473L185.383 283.251L200.507 308.56L216.22 302.1C214.369 292.383 204.866 266.76 200.021 254.979Z" fill="#2E2E2E"/>
<path d="M157.119 143.613C156.782 145.927 155.798 148.098 154.28 149.876C153.114 151.366 151.63 152.577 149.937 153.421C149.539 153.613 149.126 153.771 148.702 153.892C148.702 152.574 148.679 151.232 148.607 149.925C148.337 145.027 147.349 139.927 144.229 136.162C142.728 134.362 140.834 132.932 138.692 131.982C138.753 131.077 138.825 130.18 138.882 129.276C139.046 127.729 139.038 126.17 138.86 124.625C138.658 123.687 138.544 122.733 138.518 121.775C138.552 120.882 138.423 117.454 139.129 116.713C140.309 117.205 141.572 117.463 142.85 117.473C145.711 117.45 147.983 115.695 149.515 113.449C150.078 113.265 150.664 113.158 151.255 113.13C152.988 113.388 147.816 118.051 149.503 117.523C148.405 117.861 147.603 119.51 147.087 120.452C146.327 121.912 145.886 123.629 146.631 125.172C147.36 126.646 148.888 127.916 149.971 129.128C151.431 130.661 152.796 132.281 154.06 133.98C156.058 136.762 157.518 140.178 157.119 143.613Z" fill="#A5CB54"/>
<path d="M130.819 130.043C133.54 130.212 136.209 130.866 138.7 131.973C140.84 132.925 142.733 134.355 144.233 136.153C147.353 139.923 148.341 145.019 148.61 149.917C148.683 151.236 148.717 152.577 148.705 153.884C148.648 165.482 146.718 176.958 143.549 188.179C153.391 188.179 162.727 188.179 172.239 188.179H196.126L197.22 185.439L198.094 183.235H201.78C202.354 183.235 202.919 183.377 203.425 183.648C203.932 183.919 204.363 184.311 204.681 184.789C204.999 185.267 205.194 185.816 205.249 186.388C205.304 186.959 205.216 187.535 204.995 188.065L201.875 195.528C200.932 197.774 199.439 199.747 197.534 201.265C195.629 202.783 193.373 203.798 190.973 204.215L190.642 204.276L189.772 204.428C185.159 205.382 174.846 207.042 164.779 208.585C155.572 210.01 146.566 211.329 142.306 211.941C140.691 212.176 139.042 212.351 137.366 212.457C127.422 213.069 117.154 210.858 114.494 199.537C112.761 192.287 113.141 184.47 113.221 176.924" stroke="black" stroke-width="4.65" stroke-miterlimit="10"/>
<path d="M178.429 216.029C184.866 215.733 190.635 216.687 193.108 220.715C194.355 222.752 194.051 229.934 192.766 239.95" stroke="black" stroke-width="4.65" stroke-miterlimit="10"/>
<path d="M70.5888 256.093C70.6029 256.11 70.6143 256.13 70.623 256.15C73.378 261.767 78.223 266.615 84.4208 270.009C106.259 281.956 139.107 267.957 150.921 262.131C151.392 261.899 151.915 261.791 152.44 261.818C152.965 261.844 153.474 262.004 153.92 262.282C154.366 262.56 154.733 262.947 154.988 263.407C155.243 263.867 155.376 264.384 155.374 264.909V354.502L180.648 360.905C181.04 361.005 181.447 361.026 181.846 360.965C182.246 360.903 182.629 360.762 182.972 360.549C183.315 360.336 183.612 360.056 183.844 359.725C184.076 359.394 184.239 359.02 184.323 358.625C184.489 357.857 184.348 357.054 183.93 356.389C183.511 355.724 182.849 355.25 182.085 355.068L171.182 351.477C171.688 347.935 179.083 315.548 185.368 283.256" stroke="black" stroke-width="4.65" stroke-miterlimit="10"/>
<path d="M170.943 207.616C177.403 213.088 182.043 221.501 186.386 228.649C196.969 246.065 204.885 265.019 211.033 284.414C212.891 290.274 214.601 296.194 216.216 302.115L228.559 299.58C229.259 299.352 230.021 299.408 230.681 299.735C231.341 300.061 231.847 300.633 232.091 301.328C232.335 302.023 232.297 302.786 231.985 303.454C231.674 304.121 231.114 304.64 230.424 304.9L203.957 314.78C203.957 314.78 196.213 300.313 185.391 283.24C169.529 258.19 140.22 219.582 132.483 227.817" stroke="black" stroke-width="4.65" stroke-miterlimit="10"/>
<path d="M147.854 121.896C147.854 121.896 173.808 120.099 191.6 84.8765C191.6 84.8765 197.224 88.7563 205.063 100.893C205.063 100.893 183.069 145.532 148.61 157.312" stroke="black" stroke-width="4.65" stroke-miterlimit="10"/>
<path d="M145.506 80.7109L147.026 83.0213L147.942 84.4273C148.871 86.5918 149.687 88.8027 150.389 91.0507L150.434 91.2103L152.175 97.8603C152.178 97.8679 152.178 97.8759 152.175 97.8831C152.76 98.8461 153.566 99.6551 154.527 100.243C154.754 100.366 154.966 100.515 155.158 100.688C156.203 101.736 153.448 102.04 152.878 102.386C152.626 102.559 152.42 102.79 152.277 103.059C152.133 103.328 152.056 103.628 152.053 103.933C148.781 117.548 150.887 113.972 149.481 117.001C150.7 115.967 153.733 112.68 153.733 112.68C154.113 112.433 154.47 111.692 154.717 111.324C155.502 110.12 156.177 108.848 156.735 107.524C158.469 103.568 158.869 99.1565 157.875 94.9533C156.305 88.4211 152.646 81.8851 145.506 80.7109Z" fill="#A5CB54"/>
<path d="M145.194 84.8197C144.916 86.2326 144.246 87.539 143.26 88.5893C142.19 89.7594 140.944 90.7557 139.566 91.5419C136.975 93.0847 134.091 94.2513 131.913 96.3337C129.733 98.4302 128.428 101.274 128.261 104.295C128.109 107.388 129.215 110.591 129.888 113.487C132.02 122.846 131.336 131.841 130.158 141.261C129.04 150.149 126.662 158.848 122.048 166.584C116.607 175.704 107.673 183.004 97.6182 186.751C89.2582 189.871 73.0132 192.637 66.8686 183.958C65.8084 181.218 65.797 178.083 66.2074 175.131C68.6204 157.81 81.9014 140.034 97.7474 132.829C106.237 128.968 120.08 123.036 115.607 111.237C114.182 107.517 112.187 104.306 111.807 100.419C111.773 100.065 111.739 99.7119 111.705 99.3357C111.066 90.2157 116.375 81.5593 124.971 78.4357C127.783 77.3736 130.789 76.926 133.788 77.1228C136.788 77.3193 139.71 78.1557 142.359 79.5757C143.3 80.0762 144.142 80.7431 144.845 81.5441C144.893 81.5985 144.936 81.657 144.974 81.7189C145.027 81.8535 145.07 81.9918 145.103 82.1331C145.313 83.0136 145.344 83.9271 145.194 84.8197Z" fill="#A5CB54"/>
<path d="M148.724 153.493C153.315 152.433 157.343 149.146 158.494 144.343C159.566 139.893 157.871 135.325 155.245 131.746C152.809 128.44 147.736 125.666 148.135 120.977C148.265 119.457 149.017 118.127 149.997 116.949C150.351 116.538 150.716 116.158 151.115 115.771" stroke="black" stroke-width="4.65" stroke-miterlimit="10"/>
<path d="M139.259 116.606L139.046 132.122" stroke="black" stroke-width="4.65" stroke-miterlimit="10"/>
<path d="M113.951 108.828C112.533 105.104 110.531 101.893 110.151 98.0092C110.113 97.652 110.078 97.2948 110.052 96.9148C109.41 87.7948 114.722 79.1422 123.314 76.0148C126.127 74.9539 129.133 74.5066 132.134 74.7034C135.133 74.8999 138.056 75.7359 140.706 77.1548C141.645 77.6572 142.484 78.3256 143.184 79.127L143.363 79.3436C143.983 80.1021 144.434 80.9844 144.685 81.9314C144.936 82.8787 144.981 83.8686 144.818 84.8346C144.541 86.2436 143.875 87.5471 142.895 88.5966C141.821 89.7689 140.573 90.7687 139.194 91.5606C136.602 93.1034 133.722 94.2624 131.537 96.3448C129.356 98.447 128.054 101.3 127.897 104.325C127.741 107.418 128.85 110.618 129.512 113.521C131.643 122.88 130.963 131.871 129.785 141.287C128.668 150.176 126.293 158.878 121.672 166.614C116.231 175.734 107.301 183.038 97.242 186.781C88.7186 189.958 72.0062 192.77 66.1352 183.471C64.163 180.351 64.0338 176.403 64.543 172.748C66.956 155.431 80.2446 137.647 96.083 130.446C104.587 126.54 118.431 120.623 113.951 108.828Z" stroke="black" stroke-width="4.65" stroke-miterlimit="10"/>
<path d="M146.581 98.2977C147.397 98.2977 148.059 97.6361 148.059 96.8195C148.059 96.0033 147.397 95.3413 146.581 95.3413C145.765 95.3413 145.103 96.0033 145.103 96.8195C145.103 97.6361 145.765 98.2977 146.581 98.2977Z" fill="black"/>
<path d="M146.235 92.0552C146.235 92.0552 141.231 94.3124 142.815 98.7014" stroke="black" stroke-width="4.65" stroke-miterlimit="10"/>
<path d="M150.86 115.843C152.114 115.387 153.452 113.943 154.364 112.997C155.372 111.92 156.273 110.748 157.054 109.497C159.253 105.979 160.401 101.906 160.364 97.7567C160.327 93.6082 159.106 89.5563 156.845 86.0777C155.279 83.6609 153.193 81.5177 150.579 80.3017C148.399 79.275 145.961 78.9307 143.583 79.3137C144.912 80.3986 146.104 81.6416 147.132 83.0149C148.681 85.0476 149.766 87.3956 150.309 89.8929C150.393 90.3299 150.465 90.7631 150.541 91.2039C150.921 93.5523 151.134 95.9311 152.285 97.8539C152.872 98.8245 153.683 99.6415 154.649 100.237C154.876 100.359 155.087 100.508 155.279 100.681C156.324 101.73 153.569 102.03 152.999 102.376C151.536 103.231 152.08 105.686 151.886 107.107C151.652 108.766 151.156 110.377 150.415 111.88C150.153 112.414 149.855 112.929 149.522 113.423C148.002 115.676 145.722 117.439 142.857 117.454C141.582 117.443 140.321 117.185 139.145 116.694C137.126 115.874 135.321 114.604 133.866 112.982" stroke="black" stroke-width="4.65" stroke-miterlimit="10"/>
<path d="M148.109 107.981C148.109 107.981 144.662 109.945 143.169 105.423" stroke="black" stroke-width="4.65" stroke-miterlimit="10"/>
<path d="M197.874 92.149L206.462 87.9994C207.247 87.6209 207.933 87.0638 208.464 86.373L212.473 81.1708C212.935 80.5392 213.132 79.753 213.025 78.9782C212.916 78.2033 212.51 77.5011 211.893 77.0204C211.276 76.5393 210.496 76.3178 209.718 76.4025C208.941 76.4873 208.226 76.8711 207.727 77.4734L206.994 78.3284L208.54 74.669C208.645 74.4174 208.695 74.1465 208.686 73.874C208.677 73.6015 208.609 73.334 208.488 73.0901C208.367 72.8461 208.194 72.631 207.982 72.4596C207.77 72.2883 207.524 72.1644 207.26 72.0964L204.816 72.4194L212.454 61.9884C213.537 60.5102 212.485 58.7241 210.9 58.2187C209.076 57.6373 207.389 58.8381 206.256 60.1681C201.598 65.6554 198.067 72.0014 194.788 78.3854C193.686 80.5312 192.623 82.6946 191.6 84.8758" stroke="black" stroke-width="4.65" stroke-linejoin="round"/>
<path d="M204.82 72.4194C204.82 72.4194 199.838 78.6172 206.997 78.3284" stroke="black" stroke-width="4.65" stroke-miterlimit="10"/>
<path d="M190.95 204.211C190.95 204.211 187.256 210.204 191.558 211.674C195.86 213.145 198.212 206.229 198.212 206.229H189.909" stroke="black" stroke-width="4.65" stroke-miterlimit="10"/>
<path d="M192.272 211.85H175.142" stroke="black" stroke-width="4.65" stroke-miterlimit="10"/>
<path d="M209.566 171.14C209.561 171.562 209.481 171.981 209.331 172.375L207.613 176.848H200.29L202.833 169.939C203.114 169.173 203.656 168.531 204.364 168.124C205.071 167.718 205.9 167.574 206.703 167.717C207.506 167.86 208.234 168.282 208.757 168.908C209.28 169.533 209.567 170.324 209.566 171.14Z" stroke="black" stroke-width="4.65" stroke-miterlimit="10"/>
<path d="M173.812 176.848L169.632 188.176L176.119 170.457C176.419 169.637 176.964 168.931 177.68 168.432C178.396 167.932 179.248 167.666 180.12 167.667H206.089" stroke="black" stroke-width="4.65" stroke-miterlimit="10"/>
<path d="M196.133 188.176L200.29 176.849" stroke="black" stroke-width="4.65" stroke-miterlimit="10"/>
<path d="M64.4442 178.451C52.9872 209.296 58.2388 239.95 58.2388 239.95C75.544 249.58 100.081 248.744 117.656 240.281C123.872 237.279 130.576 232.757 133.289 226.13C135.28 221.277 137.351 216.463 139.057 211.542" stroke="black" stroke-width="4.65" stroke-miterlimit="10"/>
<path d="M54.5642 274.691H155.39" stroke="black" stroke-width="4.65" stroke-miterlimit="10"/>
<path d="M143.556 188.188L142.47 191.862" stroke="black" stroke-width="4.65" stroke-miterlimit="10"/>
<path d="M70.623 256.151C70.623 256.151 66.1846 248.232 64.7406 242.961" stroke="black" stroke-width="4.65" stroke-miterlimit="10"/>
<path d="M92.53 32.3564V111.161H62.9204C63.8959 108.042 64.7129 104.888 65.3714 101.699C67.393 91.8795 67.9934 81.7411 67.678 71.5001C67.089 51.8503 75.107 41.0317 85.7584 35.2748C87.9248 34.1037 90.1911 33.1271 92.53 32.3564Z" stroke="#CCDDE2" stroke-width="4.65" stroke-miterlimit="10"/>
<path d="M85.7584 35.2744V101.698H65.36C67.3816 91.8792 67.982 81.7408 67.6666 71.4998C67.089 51.85 75.107 41.039 85.7584 35.2744Z" stroke="#CCDDE2" stroke-width="4.65" stroke-miterlimit="10"/>
</g>
</g>
<defs>
<clipPath id="clip0_201_801">
<rect width="380" height="380" fill="white"/>
</clipPath>
</defs>
</svg>
