<svg width="19" height="15" viewBox="0 0 19 15" fill="none" xmlns="http://www.w3.org/2000/svg">
<path d="M9.1 0.369873C4.1 0.369873 0.1 4.40112 0.1 9.36987C0.1 11.0261 0.5375 12.5886 1.31875 13.9011C1.475 14.2136 1.81875 14.3699 2.1625 14.3699H16.0063C16.35 14.3699 16.6938 14.2136 16.85 13.9011C17.6313 12.5886 18.1 11.0261 18.1 9.36987C18.1 4.40112 14.0688 0.369873 9.1 0.369873ZM9.1 2.36987C9.5375 2.36987 9.9125 2.71362 10.0375 3.11987C10.0063 3.18237 9.94375 3.24487 9.9125 3.33862L9.63125 4.18237C9.475 4.30737 9.2875 4.36987 9.1 4.36987C8.5375 4.36987 8.1 3.93237 8.1 3.36987C8.1 2.83862 8.5375 2.36987 9.1 2.36987ZM3.1 11.3699C2.5375 11.3699 2.1 10.9324 2.1 10.3699C2.1 9.83862 2.5375 9.36987 3.1 9.36987C3.63125 9.36987 4.1 9.83862 4.1 10.3699C4.1 10.9324 3.63125 11.3699 3.1 11.3699ZM4.6 6.36987C4.0375 6.36987 3.6 5.93237 3.6 5.36987C3.6 4.83862 4.0375 4.36987 4.6 4.36987C5.13125 4.36987 5.6 4.83862 5.6 5.36987C5.6 5.93237 5.13125 6.36987 4.6 6.36987ZM12.2875 4.11987L10.3813 9.86987C10.8188 10.2449 11.1 10.7761 11.1 11.3699C11.1 11.7449 10.975 12.0886 10.8188 12.3699H7.35C7.19375 12.0886 7.1 11.7449 7.1 11.3699C7.1 10.3386 7.9125 9.46362 8.94375 9.40112L10.8813 3.65112C11.0063 3.24487 11.4125 3.02612 11.8188 3.18237C12.225 3.30737 12.4125 3.74487 12.2875 4.11987ZM12.7563 5.90112L13.225 4.46362C13.35 4.40112 13.475 4.40112 13.6 4.40112C14.1313 4.40112 14.6 4.83862 14.6 5.40112C14.6 5.93237 14.1313 6.40112 13.6 6.40112C13.225 6.36987 12.9438 6.18237 12.7563 5.90112ZM15.1 11.3699C14.5375 11.3699 14.1 10.9324 14.1 10.3699C14.1 9.83862 14.5375 9.36987 15.1 9.36987C15.6313 9.36987 16.1 9.83862 16.1 10.3699C16.1 10.9324 15.6313 11.3699 15.1 11.3699Z" fill="#FF8700"/>
</svg>
