<svg width="7" height="17" viewBox="0 0 7 17" fill="none" xmlns="http://www.w3.org/2000/svg">
<path d="M0.865137 13.6511C0.490137 13.6511 0.240137 13.9324 0.240137 14.2761V15.7449C0.240137 16.1199 0.490137 16.3699 0.865137 16.3699H5.61514C5.95889 16.3699 6.24014 16.1199 6.24014 15.7449V14.2761C6.24014 13.9324 5.95889 13.6511 5.61514 13.6511H4.99014V6.99487C4.99014 6.65112 4.70889 6.36987 4.36514 6.36987H0.865137C0.490137 6.36987 0.240137 6.65112 0.240137 6.99487V8.49487C0.240137 8.83862 0.490137 9.11987 0.865137 9.11987H1.49014V13.6511H0.865137ZM3.24014 0.369873C1.99014 0.369873 0.990137 1.40112 0.990137 2.61987C0.990137 3.86987 1.99014 4.86987 3.24014 4.86987C4.45889 4.86987 5.49014 3.86987 5.49014 2.61987C5.49014 1.40112 4.45889 0.369873 3.24014 0.369873Z" fill="#FF8700"/>
</svg>
