<svg width="15" height="17" viewBox="0 0 15 17" fill="none" xmlns="http://www.w3.org/2000/svg">
<path d="M7.1 8.17993C9.2875 8.17993 11.1 6.39868 11.1 4.17993C11.1 1.99243 9.2875 0.179932 7.1 0.179932C4.88125 0.179932 3.1 1.99243 3.1 4.17993C3.1 6.39868 4.88125 8.17993 7.1 8.17993ZM9.88125 9.17993H9.35C8.6625 9.52368 7.9125 9.67993 7.1 9.67993C6.2875 9.67993 5.50625 9.52368 4.81875 9.17993H4.2875C1.975 9.17993 0.0999999 11.0862 0.0999999 13.3987V14.6799C0.0999999 15.5237 0.75625 16.1799 1.6 16.1799H12.6C13.4125 16.1799 14.1 15.5237 14.1 14.6799V13.3987C14.1 11.0862 12.1937 9.17993 9.88125 9.17993Z" fill="#FF8700"/>
</svg>
