<svg width="13" height="14" viewBox="0 0 13 14" fill="none" xmlns="http://www.w3.org/2000/svg">
<path d="M11.3852 5.6875C11.85 5.6875 12.2602 6.09766 12.2602 6.5625V7.4375C12.2602 7.92969 11.85 8.3125 11.3852 8.3125H7.44766V12.25C7.44766 12.7422 7.0375 13.125 6.57266 13.125H5.69766C5.20547 13.125 4.82266 12.7422 4.82266 12.25V8.3125H0.885156C0.392969 8.3125 0.0101562 7.92969 0.0101562 7.4375V6.5625C0.0101562 6.09766 0.392969 5.6875 0.885156 5.6875H4.82266V1.75C4.82266 1.28516 5.20547 0.875 5.69766 0.875H6.57266C7.0375 0.875 7.44766 1.28516 7.44766 1.75V5.6875H11.3852Z" fill="#FF8700"/>
</svg>
