<svg width="16" height="16" viewBox="0 0 16 16" fill="none" xmlns="http://www.w3.org/2000/svg">
<path d="M15.9901 8.17993C15.9901 12.4612 12.4901 15.9299 8.24014 15.9299C6.39639 15.9612 4.67764 15.3049 3.36514 14.2424C3.02139 13.9612 2.99014 13.4299 3.30264 13.1174L3.64639 12.7737C3.92764 12.4924 4.36514 12.4612 4.64639 12.7112C5.64639 13.4924 6.86514 13.9299 8.24014 13.9299C11.3964 13.9299 13.9901 11.3674 13.9901 8.17993C13.9901 5.02368 11.3964 2.42993 8.24014 2.42993C6.70889 2.42993 5.30264 3.02368 4.27139 3.99243L5.86514 5.58618C6.17764 5.89868 5.95889 6.42993 5.52139 6.42993H0.990137C0.708887 6.42993 0.490137 6.21118 0.490137 5.92993V1.39868C0.490137 0.961182 1.02139 0.742432 1.33389 1.05493L2.86514 2.58618C4.27139 1.27368 6.14639 0.429932 8.24014 0.429932C12.4901 0.429932 15.9589 3.89868 15.9901 8.17993ZM10.3339 10.6487C10.0526 10.9612 9.58389 11.0237 9.27139 10.7737L7.24014 9.17993V4.92993C7.24014 4.52368 7.55264 4.17993 7.99014 4.17993H8.49014C8.89639 4.17993 9.24014 4.52368 9.24014 4.92993V8.21118L10.4901 9.21118C10.8339 9.46118 10.8964 9.92993 10.6151 10.2424L10.3339 10.6487Z" fill="#FF8700"/>
</svg>
